<?xml version="1.0" encoding="utf-8"?>
<!-- Generator: Adobe Illustrator 21.0.0, SVG Export Plug-In . SVG Version: 6.00 Build 0)  -->
<svg version="1.1"
	 id="Layer_1" xmlns:cc="http://creativecommons.org/ns#" xmlns:dc="http://purl.org/dc/elements/1.1/" xmlns:rdf="http://www.w3.org/1999/02/22-rdf-syntax-ns#" xmlns:svg="http://www.w3.org/2000/svg"
	 xmlns="http://www.w3.org/2000/svg" xmlns:xlink="http://www.w3.org/1999/xlink" x="0px" y="0px" viewBox="0 0 217.1 130.2"
	 style="enable-background:new 0 0 217.1 130.2;" xml:space="preserve">
<style type="text/css">
	.st0{fill:#FFFFFF;}
</style>
<g id="g8">
	<path id="path4" class="st0" d="M22.4,52.4c32.2-8.8,80.3-16.5,128-10c-17.5,6.5-29.5,14.2-40,23l12.8,0.7
		c16.9-15.1,43.1-23.3,70.6-24.7C118.7,25.5,63.1,39.3,22.4,52.4"/>
	<path id="path6" class="st0" d="M83.9,14.2L39,40.4c20.5-10.2,40.7-17.8,60.2-19.9C91.4,16.1,86.2,13.4,83.9,14.2"/>
</g>
<g id="g98">
	<path id="path10" class="st0" d="M131.1,73.8h-3.3L117.9,93v-1.7h-15.6V73.7h-3.5v21.5h19.1h2.9l1.9-3.8h13.5l1.9,3.8h4L131.1,73.8
		z M124.7,87.6l4.7-9.2l4.7,9.2H124.7z"/>
	<g id="g14">
		<path id="path12" class="st0" d="M27.9,107.9c0.3,0.2,0.7,0.4,1.1,0.4c0.6,0,1-0.4,1-0.9s-0.3-0.8-0.9-1.1
			c-0.8-0.3-1.3-0.8-1.3-1.5c0-0.8,0.6-1.5,1.5-1.5c0.5,0,0.8,0.1,1,0.3l-0.2,0.6c-0.1-0.1-0.5-0.3-0.9-0.3c-0.7,0-0.9,0.4-0.9,0.8
			c0,0.5,0.3,0.7,1,1c0.8,0.4,1.2,0.8,1.2,1.6s-0.5,1.6-1.7,1.6c-0.5,0-1-0.2-1.2-0.4L27.9,107.9z"/>
	</g>
	<polygon id="polygon16" class="st0" points="147.1,79.6 147.1,95.2 143.6,95.2 143.6,73.8 146.7,73.8 161.5,89.4 161.5,73.8 
		164.9,73.8 164.9,95.2 161.8,95.2 	"/>
	<path id="path18" class="st0" d="M185.9,75.9c-2.3-1.8-5.5-2.2-8.3-2.2h-9.5v21.5h9.5c2.7,0,5.9-0.4,8.3-2.2c2.6-2,3.5-5.2,3.5-8.6
		C189.4,81.1,188.5,77.9,185.9,75.9z M183.6,90.1c-1.6,1.1-4.1,1.2-6,1.2h-6.1V77.7h6.1c1.8,0,4.3,0.2,6,1.2
		c1.8,1.2,2.3,3.3,2.3,5.6C186,86.7,185.4,88.9,183.6,90.1z"/>
	<g id="g22">
		<path id="path20" class="st0" d="M36.4,103.4v2.3h2.3v-2.3h0.6v5.4h-0.6v-2.5h-2.3v2.5h-0.6v-5.4H36.4z"/>
	</g>
	<g id="g26">
		<path id="path24" class="st0" d="M45.6,103.4v5.4H45v-5.4H45.6z"/>
	</g>
	<g id="g30">
		<path id="path28" class="st0" d="M50.9,103.5c0.3-0.1,0.7-0.1,1.2-0.1c0.6,0,1.1,0.2,1.3,0.4c0.3,0.3,0.4,0.6,0.4,1.1
			s-0.1,0.9-0.4,1.1c-0.3,0.4-0.9,0.6-1.5,0.6c-0.2,0-0.4,0-0.5,0v2.2h-0.6L50.9,103.5L50.9,103.5z M51.5,106.1
			c0.1,0,0.3,0.1,0.5,0.1c0.7,0,1.2-0.4,1.2-1.1c0-0.7-0.5-1.1-1.1-1.1c-0.3,0-0.5,0-0.6,0.1V106.1z"/>
	</g>
	<g id="g34">
		<path id="path32" class="st0" d="M97.1,104h-1.5v-0.6h3.5v0.6h-1.5v4.8H97V104H97.1z"/>
	</g>
	<g id="g38">
		<path id="path36" class="st0" d="M103.6,107.9c0.3,0.2,0.7,0.4,1.1,0.4c0.6,0,1-0.4,1-0.9s-0.3-0.8-0.9-1.1
			c-0.8-0.3-1.3-0.8-1.3-1.5c0-0.8,0.6-1.5,1.5-1.5c0.5,0,0.8,0.1,1.1,0.3l-0.2,0.6c-0.2-0.1-0.5-0.3-0.9-0.3
			c-0.7,0-0.9,0.4-0.9,0.8c0,0.5,0.3,0.7,1,1c0.8,0.4,1.2,0.8,1.2,1.6s-0.5,1.6-1.7,1.6c-0.5,0-1-0.2-1.2-0.4L103.6,107.9z"/>
	</g>
	<g id="g42">
		<path id="path40" class="st0" d="M116.6,108.8c-0.1-0.2-0.3-0.3-0.4-0.5c-0.4,0.4-0.9,0.6-1.4,0.6c-0.9,0-1.5-0.7-1.5-1.5
			c0-0.7,0.4-1.2,0.9-1.6l0,0c-0.2-0.4-0.4-0.8-0.4-1.1c0-0.7,0.4-1.3,1.2-1.3c0.6,0,1.1,0.4,1.1,1.1c0,0.6-0.3,1-1,1.4l0,0
			c0.4,0.5,0.9,1.1,1.2,1.5c0.2-0.4,0.4-0.9,0.5-1.6h0.6c-0.1,0.8-0.3,1.5-0.7,2c0.3,0.3,0.5,0.6,0.8,1L116.6,108.8L116.6,108.8z
			 M115.9,107.9c-0.3-0.3-0.8-1-1.3-1.7c-0.3,0.2-0.6,0.5-0.6,1.1s0.4,1.1,1,1.1C115.3,108.4,115.7,108.1,115.9,107.9z M114.4,104.6
			c0,0.4,0.2,0.7,0.4,1c0.5-0.3,0.8-0.6,0.8-1.1c0-0.3-0.2-0.7-0.6-0.7C114.6,103.8,114.4,104.2,114.4,104.6z"/>
	</g>
	<g id="g46">
		<path id="path44" class="st0" d="M124.4,107.9c0.3,0.2,0.7,0.4,1.1,0.4c0.6,0,1-0.4,1-0.9s-0.3-0.8-0.9-1.1
			c-0.8-0.3-1.3-0.8-1.3-1.5c0-0.8,0.6-1.5,1.5-1.5c0.5,0,0.8,0.1,1.1,0.3l-0.2,0.6c-0.1-0.1-0.5-0.3-0.9-0.3
			c-0.7,0-0.9,0.4-0.9,0.8c0,0.5,0.3,0.7,1,1c0.8,0.4,1.2,0.8,1.2,1.6s-0.5,1.6-1.7,1.6c-0.5,0-1-0.2-1.2-0.4L124.4,107.9z"/>
	</g>
	<g id="g50">
		<path id="path48" class="st0" d="M132.9,103.4v3.2c0,1.2,0.5,1.7,1.1,1.7c0.7,0,1.2-0.5,1.2-1.7v-3.2h0.6v3.1
			c0,1.7-0.8,2.3-1.8,2.3s-1.7-0.6-1.7-2.3v-3.2L132.9,103.4L132.9,103.4z"/>
	</g>
	<g id="g54">
		<path id="path52" class="st0" d="M141.5,103.5c0.3-0.1,0.7-0.1,1.2-0.1c0.6,0,1.1,0.2,1.3,0.4c0.3,0.3,0.4,0.6,0.4,1.1
			s-0.1,0.9-0.4,1.1c-0.3,0.4-0.9,0.6-1.5,0.6c-0.2,0-0.4,0-0.5,0v2.2h-0.6v-5.3H141.5z M142.1,106.1c0.1,0,0.3,0.1,0.5,0.1
			c0.7,0,1.2-0.4,1.2-1.1c0-0.7-0.5-1.1-1.1-1.1c-0.3,0-0.5,0-0.6,0.1L142.1,106.1L142.1,106.1z"/>
	</g>
	<g id="g58">
		<path id="path56" class="st0" d="M149.2,103.5c0.3-0.1,0.7-0.1,1.2-0.1c0.6,0,1.1,0.2,1.3,0.4c0.3,0.3,0.4,0.6,0.4,1.1
			s-0.1,0.9-0.4,1.1c-0.3,0.4-0.9,0.6-1.5,0.6c-0.2,0-0.4,0-0.5,0v2.2h-0.6v-5.3H149.2z M149.8,106.1c0.1,0,0.3,0.1,0.5,0.1
			c0.7,0,1.2-0.4,1.2-1.1c0-0.7-0.5-1.1-1.1-1.1c-0.3,0-0.5,0-0.6,0.1L149.8,106.1L149.8,106.1z"/>
	</g>
	<g id="g62">
		<path id="path60" class="st0" d="M156.8,103.4h0.6v4.8h2v0.6h-2.7L156.8,103.4L156.8,103.4z"/>
	</g>
	<g id="g66">
		<path id="path64" class="st0" d="M164.7,103.4v5.4h-0.6v-5.4H164.7z"/>
	</g>
	<g id="g70">
		<path id="path68" class="st0" d="M172.5,106.3h-1.9v1.9h2.1v0.6H170v-5.4h2.6v0.6h-2v1.7h1.9L172.5,106.3L172.5,106.3z"/>
	</g>
	<g id="g74">
		<path id="path72" class="st0" d="M177.7,103.5c0.3-0.1,0.8-0.1,1.2-0.1c0.7,0,1.1,0.1,1.4,0.4c0.2,0.2,0.4,0.6,0.4,1
			c0,0.7-0.4,1.2-0.9,1.4l0,0c0.4,0.1,0.6,0.5,0.7,1.1c0.2,0.7,0.3,1.3,0.4,1.5h-0.6c-0.1-0.2-0.2-0.6-0.3-1.3s-0.4-1-1-1h-0.7v2.3
			h-0.6V103.5z M178.3,105.9h0.6c0.7,0,1.1-0.4,1.1-1c0-0.7-0.4-1-1.1-1c-0.3,0-0.5,0-0.6,0.1V105.9z"/>
	</g>
	<g id="g78">
		<path id="path76" class="st0" d="M185.5,107.9c0.3,0.2,0.7,0.4,1.1,0.4c0.6,0,1-0.4,1-0.9s-0.3-0.8-0.9-1.1
			c-0.8-0.3-1.3-0.8-1.3-1.5c0-0.8,0.6-1.5,1.5-1.5c0.5,0,0.8,0.1,1,0.3l-0.2,0.6c-0.2-0.1-0.5-0.3-0.9-0.3c-0.7,0-0.9,0.4-0.9,0.8
			c0,0.5,0.3,0.7,1,1c0.8,0.4,1.2,0.8,1.2,1.6s-0.5,1.6-1.7,1.6c-0.5,0-1-0.2-1.2-0.4L185.5,107.9z"/>
	</g>
	<path id="path80" class="st0" d="M80.3,88.4h10.8l-5.4-10.5L80.3,88.4z M34.8,95.1c-0.9-0.1-1.8-0.2-2.7-0.4
		c-1.9-0.4-3.9-1.3-4.8-3.5L27,90.5l2.6-0.8l0.2,0.4c1.1,1.9,6.2,2,8,2c1.1,0,2.2,0,3.3-0.1c0.7,0,1.5-0.1,2.2-0.2
		c1.2-0.2,3.7-0.8,3.7-2.6c0-1.9-2.6-2.4-3.8-2.6c-0.7-0.1-1.4-0.1-2.1-0.2c-1.1-0.1-2.3-0.1-3.4-0.1c-2,0-4.5-0.1-6.5-0.7
		c-2.4-0.7-4.3-2.3-4.3-5.2c0-3,2-4.5,4.4-5.2c0.9-0.3,1.9-0.4,2.9-0.5c1.4-0.1,2.7-0.2,4.1-0.2c1.2,0,2.5,0,3.7,0.1
		c0.9,0.1,1.8,0.2,2.7,0.4c1.9,0.5,4,1.4,4.7,3.5l0.2,0.7L47,80l-0.2-0.4c-0.6-1.1-2.4-1.6-3.4-1.8c-1.5-0.3-3-0.3-4.5-0.3
		c-1.1,0-2.2,0-3.3,0.1c-0.7,0-1.5,0.1-2.2,0.2c-1.2,0.2-3.7,0.7-3.7,2.6s2.5,2.4,3.7,2.6l0,0c0.7,0.1,1.4,0.2,2.1,0.2
		c1.1,0.1,2.2,0.1,3.3,0.1c1.3,0,2.6,0,3.8,0.2c0.9,0.1,1.9,0.2,2.8,0.5c2.4,0.7,4.4,2.3,4.4,5.3s-2,4.5-4.4,5.2
		c-0.9,0.3-1.9,0.4-2.9,0.5c-1.3,0.1-2.7,0.2-4,0.2C37.2,95.2,36,95.1,34.8,95.1z M56.5,77.6v5.8h15.6v3H56.5v5.8h15.6v3H53.8V74.6
		h18.3v3C72.1,77.6,56.5,77.6,56.5,77.6z M92.6,91.4H78.7l-1.9,3.8h-3.1l10.6-20.6h2.8l10.6,20.6h-3.1L92.6,91.4z"/>
	<g id="g84">
		<path id="path82" class="st0" d="M61.6,107.1l-0.5,1.7h-0.6l1.6-5.4h0.7l1.6,5.4h-0.7l-0.5-1.7H61.6z M63.2,106.6l-0.5-1.5
			c-0.1-0.3-0.2-0.7-0.2-1l0,0c-0.1,0.3-0.1,0.6-0.2,1l-0.5,1.6h1.4V106.6z"/>
	</g>
	<g id="g88">
		<path id="path86" class="st0" d="M73,108.5c-0.3,0.1-0.8,0.3-1.5,0.3s-1.3-0.2-1.8-0.7c-0.4-0.4-0.7-1.2-0.7-2
			c0-1.6,1-2.8,2.6-2.8c0.6,0,1,0.1,1.2,0.2l-0.2,0.6c-0.3-0.1-0.6-0.2-1.1-0.2c-1.2,0-1.9,0.8-1.9,2.2s0.7,2.2,1.8,2.2
			c0.4,0,0.7-0.1,0.8-0.1v-1.6h-1V106h1.6v2.5H73z"/>
	</g>
	<g id="g92">
		<path id="path90" class="st0" d="M81.4,106.3h-1.9v1.9h2.1v0.6h-2.7v-5.4h2.6v0.6h-2v1.7h1.9L81.4,106.3L81.4,106.3z"/>
	</g>
	<g id="g96">
		<path id="path94" class="st0" d="M86.7,108.8v-5.4h0.7l1.5,2.7c0.3,0.6,0.6,1.2,0.9,1.7l0,0c-0.1-0.7-0.1-1.4-0.1-2.2v-2.3h0.6
			v5.4h-0.6l-1.5-2.7c-0.3-0.6-0.7-1.2-0.9-1.8l0,0c0,0.7,0,1.3,0,2.2v2.3h-0.6V108.8z"/>
	</g>
</g>
</svg>
